<svg width="60" height="60" viewBox="0 0 60 60" xmlns="http://www.w3.org/2000/svg">
  <defs>
    <linearGradient id="frameGradient" x1="0%" y1="0%" x2="100%" y2="100%">
      <stop offset="0%" style="stop-color:#1a1a1a;stop-opacity:1" />
      <stop offset="50%" style="stop-color:#2d2d2d;stop-opacity:1" />
      <stop offset="100%" style="stop-color:#1a1a1a;stop-opacity:1" />
    </linearGradient>
    <linearGradient id="armGradient" x1="0%" y1="0%" x2="100%" y2="100%">
      <stop offset="0%" style="stop-color:#333;stop-opacity:1" />
      <stop offset="100%" style="stop-color:#1a1a1a;stop-opacity:1" />
    </linearGradient>
  </defs>
  
  <!-- Main frame structure -->
  <g stroke="#0a0a0a" stroke-width="0.8">
    <!-- Diagonal arms (X-configuration like reference) -->
    <!-- Top-left to bottom-right arm -->
    <path d="M12 12 L48 48 L46 50 L10 14 Z" fill="url(#armGradient)"/>
    <!-- Top-right to bottom-left arm -->
    <path d="M48 12 L12 48 L10 46 L46 10 Z" fill="url(#armGradient)"/>
    
    <!-- Arm reinforcements -->
    <path d="M15 15 L45 45 L43 47 L13 17 Z" fill="none" stroke="#444" stroke-width="0.5"/>
    <path d="M45 15 L15 45 L13 43 L43 13 Z" fill="none" stroke="#444" stroke-width="0.5"/>
    
    <!-- Center body plate (hexagonal like racing frames) -->
    <path d="M25 18 L35 18 L40 25 L40 35 L35 42 L25 42 L20 35 L20 25 Z" fill="url(#frameGradient)"/>
    
    <!-- Motor mounts at arm ends -->
    <circle cx="12" cy="12" r="3.5" fill="#e74c3c" stroke="#c0392b" stroke-width="0.5"/>
    <circle cx="48" cy="12" r="3.5" fill="#e74c3c" stroke="#c0392b" stroke-width="0.5"/>
    <circle cx="48" cy="48" r="3.5" fill="#e74c3c" stroke="#c0392b" stroke-width="0.5"/>
    <circle cx="12" cy="48" r="3.5" fill="#e74c3c" stroke="#c0392b" stroke-width="0.5"/>
    
    <!-- Motor mount holes -->
    <circle cx="12" cy="12" r="1.2" fill="#0a0a0a"/>
    <circle cx="48" cy="12" r="1.2" fill="#0a0a0a"/>
    <circle cx="48" cy="48" r="1.2" fill="#0a0a0a"/>
    <circle cx="12" cy="48" r="1.2" fill="#0a0a0a"/>
    
    <!-- Center mounting holes -->
    <circle cx="27" cy="27" r="1" fill="#0a0a0a"/>
    <circle cx="33" cy="27" r="1" fill="#0a0a0a"/>
    <circle cx="27" cy="33" r="1" fill="#0a0a0a"/>
    <circle cx="33" cy="33" r="1" fill="#0a0a0a"/>
    
    <!-- Additional center detail -->
    <circle cx="30" cy="30" r="2" fill="none" stroke="#444" stroke-width="0.5"/>
  </g>
  
  <!-- Carbon fiber texture pattern -->
  <g stroke="#444" stroke-width="0.3" opacity="0.4">
    <!-- Diagonal weave pattern -->
    <line x1="22" y1="20" x2="38" y2="36"/>
    <line x1="24" y1="18" x2="40" y2="34"/>
    <line x1="20" y1="22" x2="36" y2="38"/>
    <line x1="38" y1="20" x2="22" y2="36"/>
    <line x1="40" y1="22" x2="24" y2="38"/>
    <line x1="36" y1="18" x2="20" y2="34"/>
  </g>
</svg>
