<svg width="60" height="60" viewBox="0 0 60 60" xmlns="http://www.w3.org/2000/svg">
  <defs>
    <linearGradient id="frameGradient" x1="0%" y1="0%" x2="100%" y2="100%">
      <stop offset="0%" style="stop-color:#2c3e50;stop-opacity:1" />
      <stop offset="100%" style="stop-color:#34495e;stop-opacity:1" />
    </linearGradient>
  </defs>
  
  <!-- Main frame structure -->
  <g stroke="#1a252f" stroke-width="1" fill="url(#frameGradient)">
    <!-- Center plate -->
    <rect x="20" y="20" width="20" height="20" rx="2"/>
    
    <!-- Arms -->
    <rect x="5" y="27" width="15" height="6" rx="3"/>
    <rect x="40" y="27" width="15" height="6" rx="3"/>
    <rect x="27" y="5" width="6" height="15" rx="3"/>
    <rect x="27" y="40" width="6" height="15" rx="3"/>
    
    <!-- Motor mounts -->
    <circle cx="8" cy="30" r="4" fill="#e74c3c"/>
    <circle cx="52" cy="30" r="4" fill="#e74c3c"/>
    <circle cx="30" cy="8" r="4" fill="#e74c3c"/>
    <circle cx="30" cy="52" r="4" fill="#e74c3c"/>
    
    <!-- Center mounting holes -->
    <circle cx="25" cy="25" r="1.5" fill="#1a252f"/>
    <circle cx="35" cy="25" r="1.5" fill="#1a252f"/>
    <circle cx="25" cy="35" r="1.5" fill="#1a252f"/>
    <circle cx="35" cy="35" r="1.5" fill="#1a252f"/>
  </g>
  
  <!-- Carbon fiber texture lines -->
  <g stroke="#7f8c8d" stroke-width="0.5" opacity="0.6">
    <line x1="22" y1="22" x2="38" y2="38"/>
    <line x1="38" y1="22" x2="22" y2="38"/>
    <line x1="30" y1="20" x2="30" y2="40"/>
    <line x1="20" y1="30" x2="40" y2="30"/>
  </g>
</svg>
